<svg viewBox="0 0 200 200" xmlns="http://www.w3.org/2000/svg">
  <path fill="#FFD9C1" d="M45.3,-79.3C57.5,-71.4,65.2,-56.8,70.6,-42.4C76,-28.1,79,-14,76.6,-1.4C74.3,11.3,66.5,22.6,60.9,36.6C55.3,50.6,51.9,67.4,42.2,77.6C32.4,87.8,16.2,91.4,1.6,88.6C-12.9,85.8,-25.9,76.5,-39.3,68.4C-52.8,60.4,-66.7,53.5,-76.3,42.3C-86,31.1,-91.2,15.5,-86.7,2.6C-82.2,-10.3,-67.9,-20.6,-57.3,-30.2C-46.8,-39.8,-40,-48.6,-31.1,-58.3C-22.1,-68,-11.1,-78.6,2.8,-83.3C16.6,-88.1,33.1,-87.1,45.3,-79.3Z" transform="translate(100 100)" />
</svg>